<svg id="visual" viewBox="0 0 1280 1000" width="1280" height="1000" xmlns="http://www.w3.org/2000/svg" xmlns:xlink="http://www.w3.org/1999/xlink" version="1.1"><g><g transform="translate(23 312)"><path d="M147.9 -116.5C183.7 -73 199.3 -12 186.7 42.4C174.1 96.7 133.3 144.4 83.6 164.9C34 185.5 -24.5 179 -73.9 154.7C-123.3 130.5 -163.5 88.5 -174.9 39.6C-186.4 -9.3 -169.1 -65.2 -135.1 -108.2C-101.2 -151.2 -50.6 -181.3 2.7 -183.5C56 -185.7 112.1 -159.9 147.9 -116.5Z" fill="none" stroke="#F2B5D4" stroke-width="18"></path></g><g transform="translate(579 207)"><path d="M136.6 -101C172 -64.5 192.2 -8 181.2 42C170.3 92 128.3 135.6 80.9 152.4C33.6 169.2 -19.2 159.3 -60.3 135.5C-101.5 111.8 -131 74.2 -145.4 28.3C-159.9 -17.7 -159.2 -72.1 -132.4 -106.6C-105.7 -141.1 -52.8 -155.7 -1.1 -154.8C50.6 -153.9 101.2 -137.5 136.6 -101Z" fill="none" stroke="#F2B5D4" stroke-width="18"></path></g><g transform="translate(867 801)"><path d="M124.5 -97.2C158.9 -56.2 182.6 -4.5 172 38.3C161.5 81.1 116.7 115.2 69.4 134.1C22.1 153.1 -27.7 157 -71.5 139.4C-115.3 121.8 -153.2 82.7 -161.6 38.9C-170 -5 -149 -53.6 -117.2 -94C-85.4 -134.5 -42.7 -166.9 1.2 -167.8C45.1 -168.8 90.1 -138.3 124.5 -97.2Z" fill="none" stroke="#F2B5D4" stroke-width="18"></path></g></g></svg>