<svg id="visual" viewBox="0 0 1280 1000" width="1280" height="1000" xmlns="http://www.w3.org/2000/svg" xmlns:xlink="http://www.w3.org/1999/xlink" version="1.1"><path d="M0 607L30.5 611.8C61 616.7 122 626.3 183 641.5C244 656.7 305 677.3 366 680.7C427 684 488 670 548.8 648.2C609.7 626.3 670.3 596.7 731.2 593.7C792 590.7 853 614.3 914 643C975 671.7 1036 705.3 1097 727.8C1158 750.3 1219 761.7 1249.5 767.3L1280 773L1280 1001L1249.5 1001C1219 1001 1158 1001 1097 1001C1036 1001 975 1001 914 1001C853 1001 792 1001 731.2 1001C670.3 1001 609.7 1001 548.8 1001C488 1001 427 1001 366 1001C305 1001 244 1001 183 1001C122 1001 61 1001 30.5 1001L0 1001Z" fill="#000000"></path><path d="M0 814L30.5 810.3C61 806.7 122 799.3 183 793.3C244 787.3 305 782.7 366 766.7C427 750.7 488 723.3 548.8 699.8C609.7 676.3 670.3 656.7 731.2 652C792 647.3 853 657.7 914 679.7C975 701.7 1036 735.3 1097 737C1158 738.7 1219 708.3 1249.5 693.2L1280 678L1280 1001L1249.5 1001C1219 1001 1158 1001 1097 1001C1036 1001 975 1001 914 1001C853 1001 792 1001 731.2 1001C670.3 1001 609.7 1001 548.8 1001C488 1001 427 1001 366 1001C305 1001 244 1001 183 1001C122 1001 61 1001 30.5 1001L0 1001Z" fill="#003b56"></path><path d="M0 723L30.5 736.5C61 750 122 777 183 781C244 785 305 766 366 764C427 762 488 777 548.8 777.2C609.7 777.3 670.3 762.7 731.2 757.8C792 753 853 758 914 752.7C975 747.3 1036 731.7 1097 733.2C1158 734.7 1219 753.3 1249.5 762.7L1280 772L1280 1001L1249.5 1001C1219 1001 1158 1001 1097 1001C1036 1001 975 1001 914 1001C853 1001 792 1001 731.2 1001C670.3 1001 609.7 1001 548.8 1001C488 1001 427 1001 366 1001C305 1001 244 1001 183 1001C122 1001 61 1001 30.5 1001L0 1001Z" fill="#006e8c"></path><path d="M0 903L30.5 896.3C61 889.7 122 876.3 183 865C244 853.7 305 844.3 366 836.3C427 828.3 488 821.7 548.8 821.3C609.7 821 670.3 827 731.2 841.5C792 856 853 879 914 883.8C975 888.7 1036 875.3 1097 857C1158 838.7 1219 815.3 1249.5 803.7L1280 792L1280 1001L1249.5 1001C1219 1001 1158 1001 1097 1001C1036 1001 975 1001 914 1001C853 1001 792 1001 731.2 1001C670.3 1001 609.7 1001 548.8 1001C488 1001 427 1001 366 1001C305 1001 244 1001 183 1001C122 1001 61 1001 30.5 1001L0 1001Z" fill="#00a3c4"></path><path d="M0 955L30.5 949.7C61 944.3 122 933.7 183 922.5C244 911.3 305 899.7 366 892.2C427 884.7 488 881.3 548.8 891.7C609.7 902 670.3 926 731.2 932.3C792 938.7 853 927.3 914 916C975 904.7 1036 893.3 1097 902.2C1158 911 1219 940 1249.5 954.5L1280 969L1280 1001L1249.5 1001C1219 1001 1158 1001 1097 1001C1036 1001 975 1001 914 1001C853 1001 792 1001 731.2 1001C670.3 1001 609.7 1001 548.8 1001C488 1001 427 1001 366 1001C305 1001 244 1001 183 1001C122 1001 61 1001 30.5 1001L0 1001Z" fill="#00dbfb"></path></svg>